<svg width="40" height="40" viewBox="0 0 40 40" fill="none" xmlns="http://www.w3.org/2000/svg" xmlns:xlink="http://www.w3.org/1999/xlink">
<g opacity="0.4">
<path d="M20,28.917C21.5,28.917 22.717,27.7 22.717,26.2C22.717,24.7 21.5,23.483 20,23.483C18.499,23.483 17.283,24.7 17.283,26.2C17.283,27.7 18.499,28.917 20,28.917Z" fill="#FFFFFF"/>
</g>
<path d="M27.75,15.733L12.25,15.733C5.416,15.733 3.333,17.816 3.333,24.65L3.333,27.75C3.333,34.583 5.416,36.667 12.25,36.667L27.75,36.667C34.583,36.667 36.666,34.583 36.666,27.75L36.666,24.65C36.666,17.816 34.583,15.733 27.75,15.733ZM20,31.233C17.216,31.233 14.966,28.966 14.966,26.2C14.966,23.433 17.216,21.166 20,21.166C22.783,21.166 25.033,23.433 25.033,26.2C25.033,28.966 22.783,31.233 20,31.233Z" fill="#FFFFFF"/>
<g opacity="0.4">
<path d="M11.867,15.75L11.867,13.8C11.867,8.917 13.25,5.667 20,5.667C26.75,5.667 28.133,8.917 28.133,13.8L28.133,15.75C28.983,15.767 29.75,15.8 30.467,15.9L30.467,13.8C30.467,9.3 29.383,3.333 20,3.333C10.617,3.333 9.533,9.3 9.533,13.8L9.533,15.883C10.233,15.8 11.017,15.75 11.867,15.75Z" fill="#FFFFFF"/>
</g>
</svg>
