<svg width="64" height="64" viewBox="0 0 64 64" fill="none" xmlns="http://www.w3.org/2000/svg" xmlns:xlink="http://www.w3.org/1999/xlink">
<path d="M25.333,41.557L25.333,22.442C25.333,22.203 25.398,21.969 25.52,21.763C25.643,21.558 25.818,21.389 26.028,21.274C26.238,21.16 26.475,21.104 26.714,21.112C26.953,21.121 27.185,21.193 27.386,21.322L42.256,30.877C42.444,30.998 42.599,31.164 42.706,31.36C42.813,31.556 42.87,31.776 42.87,32C42.87,32.223 42.813,32.443 42.706,32.64C42.599,32.836 42.444,33.002 42.256,33.122L27.386,42.68C27.185,42.809 26.953,42.882 26.714,42.89C26.475,42.899 26.238,42.843 26.028,42.728C25.818,42.614 25.643,42.445 25.52,42.239C25.398,42.034 25.333,41.799 25.333,41.56L25.333,41.557Z" fill="#023F2D"/>
<path d="M2.667,32C2.667,15.8 15.8,2.667 32,2.667C48.2,2.667 61.334,15.8 61.334,32C61.334,48.2 48.2,61.333 32,61.333C15.8,61.333 2.667,48.2 2.667,32ZM32,6.667C25.282,6.667 18.838,9.336 14.087,14.086C9.336,18.837 6.667,25.281 6.667,32C6.667,38.719 9.336,45.162 14.087,49.913C18.838,54.664 25.282,57.333 32,57.333C38.719,57.333 45.163,54.664 49.914,49.913C54.665,45.162 57.334,38.719 57.334,32C57.334,25.281 54.665,18.837 49.914,14.086C45.163,9.336 38.719,6.667 32,6.667Z" fill="#023F2D"/>
</svg>
