<svg width="34" height="24" viewBox="0 0 34 24" fill="none" xmlns="http://www.w3.org/2000/svg" xmlns:xlink="http://www.w3.org/1999/xlink">
<path d="M31.332,-0.51L29.332,-0.51C28.228,-0.51 27.332,0.441 27.332,1.613L27.332,20.004C27.332,21.176 28.228,22.126 29.332,22.126L31.332,22.126C32.437,22.126 33.332,21.176 33.332,20.004L33.332,1.613C33.332,0.441 32.437,-0.51 31.332,-0.51ZM19.998,4.442L21.998,4.442C23.103,4.442 23.998,5.392 23.998,6.564L23.998,20.004C23.998,21.176 23.103,22.126 21.998,22.126L19.998,22.126C18.893,22.126 17.998,21.176 17.998,20.004L17.998,6.564C17.998,5.392 18.893,4.442 19.998,4.442ZM12.664,9.394L10.664,9.394C9.559,9.394 8.664,10.344 8.664,11.516L8.664,20.004C8.664,21.176 9.559,22.127 10.664,22.127L12.664,22.127C13.769,22.127 14.664,21.176 14.664,20.004L14.664,11.516C14.664,10.344 13.769,9.394 12.664,9.394ZM3.332,13.638L1.332,13.638C0.227,13.638 -0.668,14.588 -0.668,15.76L-0.668,20.005C-0.668,21.177 0.227,22.127 1.332,22.127L3.332,22.127C4.437,22.127 5.332,21.177 5.332,20.005L5.332,15.76C5.332,14.588 4.437,13.638 3.332,13.638Z" clip-rule="evenodd" fill-rule="evenodd" fill="#FFFFFF"/>
</svg>
