<svg width="30" height="26" viewBox="0 0 30 26" fill="none" xmlns="http://www.w3.org/2000/svg" xmlns:xlink="http://www.w3.org/1999/xlink">
<path d="M14.662,5.61C19.094,5.611 23.356,7.417 26.568,10.657C26.81,10.908 27.196,10.904 27.434,10.65L29.746,8.175C29.867,8.046 29.934,7.871 29.933,7.69C29.932,7.508 29.863,7.334 29.741,7.207C21.311,-1.366 8.011,-1.366 -0.419,7.207C-0.541,7.334 -0.61,7.508 -0.611,7.689C-0.612,7.871 -0.545,8.046 -0.425,8.175L1.888,10.65C2.126,10.905 2.513,10.908 2.755,10.657C5.967,7.417 10.23,5.61 14.662,5.61ZM14.661,13.665C17.096,13.665 19.444,14.625 21.249,16.359C21.493,16.605 21.878,16.6 22.116,16.347L24.425,13.871C24.547,13.742 24.614,13.565 24.613,13.382C24.611,13.199 24.54,13.025 24.416,12.897C18.92,7.473 10.408,7.473 4.911,12.897C4.787,13.025 4.716,13.199 4.715,13.383C4.713,13.566 4.781,13.742 4.903,13.871L7.211,16.347C7.449,16.6 7.834,16.605 8.078,16.359C9.882,14.626 12.228,13.666 14.661,13.665ZM19.288,19.084C19.291,19.268 19.223,19.445 19.1,19.574L15.105,23.851C14.988,23.977 14.828,24.047 14.662,24.047C14.495,24.047 14.335,23.977 14.218,23.851L10.223,19.574C10.099,19.445 10.032,19.268 10.035,19.084C10.039,18.901 10.114,18.727 10.242,18.604C12.793,16.314 16.53,16.314 19.081,18.604C19.209,18.727 19.284,18.901 19.288,19.084Z" clip-rule="evenodd" fill-rule="evenodd" fill="#FFFFFF"/>
</svg>
