<svg width="24" height="24" viewBox="0 0 24 24" fill="none" xmlns="http://www.w3.org/2000/svg" xmlns:xlink="http://www.w3.org/1999/xlink">
<path d="M11,-0.375C7.994,-0.339 5.122,0.871 2.997,2.997C0.871,5.122 -0.339,7.994 -0.375,11C-0.339,14.006 0.871,16.878 2.997,19.003C5.122,21.129 7.994,22.339 11,22.375C14.006,22.339 16.878,21.129 19.003,19.003C21.129,16.878 22.339,14.006 22.375,11C22.339,7.994 21.129,5.122 19.003,2.997C16.878,0.871 14.006,-0.339 11,-0.375ZM17.5,11.813L11.813,11.813L11.813,17.5L10.188,17.5L10.188,11.813L4.5,11.813L4.5,10.188L10.188,10.188L10.188,4.5L11.813,4.5L11.813,10.188L17.5,10.188L17.5,11.813Z" fill="#05976A"/>
</svg>
