<svg width="36" height="38" viewBox="0 0 36 38" fill="none" xmlns="http://www.w3.org/2000/svg" xmlns:xlink="http://www.w3.org/1999/xlink">
<path d="M2.333,0.485C0.676,0.485 -0.667,1.828 -0.667,3.485L-0.667,33.485C-0.667,35.142 0.676,36.485 2.333,36.485L32.333,36.485C33.99,36.485 35.333,35.142 35.333,33.485L35.333,3.485C35.333,1.828 33.99,0.485 32.333,0.485L2.333,0.485ZM10.375,8.491C10.386,10.403 8.954,11.582 7.255,11.573C5.655,11.565 4.26,10.291 4.269,8.494C4.277,6.803 5.613,5.445 7.348,5.484C9.109,5.524 10.386,6.815 10.375,8.491ZM17.892,14.009L12.852,14.009L12.85,14.009L12.85,31.129L18.176,31.129L18.176,30.729C18.176,29.969 18.176,29.209 18.175,28.449C18.174,26.422 18.172,24.392 18.182,22.365C18.185,21.873 18.207,21.361 18.334,20.891C18.809,19.136 20.387,18.003 22.148,18.281C23.278,18.458 24.026,19.114 24.341,20.18C24.536,20.846 24.623,21.563 24.631,22.258C24.654,24.353 24.651,26.448 24.648,28.544C24.646,29.283 24.645,30.023 24.645,30.763L24.645,31.126L29.989,31.126L29.989,30.715C29.989,29.811 29.989,28.907 29.988,28.004C29.987,25.745 29.986,23.486 29.992,21.226C29.995,20.205 29.885,19.198 29.635,18.211C29.261,16.743 28.487,15.528 27.23,14.65C26.338,14.026 25.36,13.624 24.266,13.579C24.141,13.573 24.015,13.567 23.889,13.56C23.33,13.53 22.761,13.499 22.226,13.607C20.696,13.913 19.352,14.614 18.337,15.848C18.219,15.99 18.103,16.134 17.931,16.348L17.892,16.397L17.892,14.009ZM4.696,31.134L9.998,31.134L9.998,14.02L4.696,14.02L4.696,31.134Z" clip-rule="evenodd" fill-rule="evenodd" fill="#FFFFFF"/>
</svg>
