<svg width="24" height="36" viewBox="0 0 24 36" fill="none" xmlns="http://www.w3.org/2000/svg" xmlns:xlink="http://www.w3.org/1999/xlink">
<path d="M11.999,34.501C12.331,34.501 12.649,34.369 12.883,34.135C13.117,33.9 13.249,33.583 13.249,33.251L13.249,3.769L21.114,11.636C21.349,11.871 21.667,12.003 21.999,12.003C22.331,12.003 22.649,11.871 22.884,11.636C23.119,11.401 23.251,11.083 23.251,10.751C23.251,10.419 23.119,10.101 22.884,9.866L12.884,-0.134C12.768,-0.25 12.63,-0.343 12.478,-0.406C12.326,-0.469 12.164,-0.501 11.999,-0.501C11.835,-0.501 11.672,-0.469 11.52,-0.406C11.368,-0.343 11.23,-0.25 11.114,-0.134L1.114,9.866C0.998,9.982 0.906,10.12 0.843,10.272C0.78,10.424 0.748,10.587 0.748,10.751C0.748,11.083 0.879,11.401 1.114,11.636C1.349,11.871 1.667,12.003 1.999,12.003C2.331,12.003 2.649,11.871 2.884,11.636L10.749,3.769L10.749,33.251C10.749,33.583 10.881,33.9 11.115,34.135C11.35,34.369 11.668,34.501 11.999,34.501Z" clip-rule="evenodd" fill-rule="evenodd" transform="rotate(-180 11.999 17)" fill="#333333"/>
</svg>
