<svg width="40" height="42" viewBox="0 0 40 42" fill="none" xmlns="http://www.w3.org/2000/svg" xmlns:xlink="http://www.w3.org/1999/xlink">
<path d="M39.333,20.608C39.333,9.494 30.379,0.485 19.333,0.485C8.287,0.485 -0.667,9.494 -0.667,20.608C-0.667,30.651 6.647,38.976 16.208,40.485L16.208,26.424L11.13,26.424L11.13,20.608L16.208,20.608L16.208,16.174C16.208,11.131 19.194,8.346 23.762,8.346C25.951,8.346 28.239,8.739 28.239,8.739L28.239,13.691L25.717,13.691C23.233,13.691 22.458,15.242 22.458,16.833L22.458,20.608L28.005,20.608L27.118,26.424L22.458,26.424L22.458,40.485C32.019,38.976 39.333,30.651 39.333,20.608Z" fill="#FFFFFF"/>
</svg>
