<svg width="22" height="22" viewBox="0 0 22 22" fill="none" xmlns="http://www.w3.org/2000/svg" xmlns:xlink="http://www.w3.org/1999/xlink">
<path d="M-0.062,-0.062C0.077,-0.202 0.243,-0.313 0.425,-0.388C0.607,-0.464 0.802,-0.503 1,-0.503C1.197,-0.503 1.392,-0.464 1.575,-0.388C1.757,-0.313 1.922,-0.202 2.062,-0.062L10,7.879L17.938,-0.062C18.077,-0.201 18.243,-0.312 18.425,-0.388C18.607,-0.463 18.803,-0.502 19,-0.502C19.197,-0.502 19.392,-0.463 19.574,-0.388C19.757,-0.312 19.922,-0.201 20.062,-0.062C20.201,0.077 20.312,0.243 20.387,0.425C20.463,0.607 20.502,0.803 20.502,1C20.502,1.197 20.463,1.393 20.387,1.575C20.312,1.757 20.201,1.923 20.062,2.062L12.121,10L20.062,17.938C20.201,18.077 20.312,18.243 20.387,18.425C20.463,18.607 20.502,18.803 20.502,19C20.502,19.197 20.463,19.393 20.387,19.575C20.312,19.757 20.201,19.923 20.062,20.062C19.922,20.202 19.757,20.312 19.574,20.388C19.392,20.463 19.197,20.502 19,20.502C18.803,20.502 18.607,20.463 18.425,20.388C18.243,20.312 18.077,20.202 17.938,20.062L10,12.121L2.062,20.062C1.922,20.202 1.757,20.312 1.575,20.388C1.392,20.463 1.197,20.502 1,20.502C0.803,20.502 0.607,20.463 0.425,20.388C0.243,20.312 0.077,20.202 -0.062,20.062C-0.202,19.923 -0.312,19.757 -0.388,19.575C-0.463,19.393 -0.502,19.197 -0.502,19C-0.502,18.803 -0.463,18.607 -0.388,18.425C-0.312,18.243 -0.202,18.077 -0.062,17.938L7.879,10L-0.062,2.062C-0.202,1.923 -0.313,1.757 -0.388,1.575C-0.464,1.393 -0.503,1.197 -0.503,1C-0.503,0.803 -0.464,0.607 -0.388,0.425C-0.313,0.243 -0.202,0.077 -0.062,-0.062Z" fill="#333333"/>
</svg>
