<svg width="30" height="34" viewBox="0 0 30 34" fill="none" xmlns="http://www.w3.org/2000/svg" xmlns:xlink="http://www.w3.org/1999/xlink">
<path d="M24.899,2.867L15.733,-0.567C14.783,-0.917 13.233,-0.917 12.283,-0.567L3.116,2.867C1.349,3.533 -0.084,5.6 -0.084,7.483L-0.084,20.983C-0.084,22.333 0.799,24.117 1.883,24.917L11.049,31.767C12.666,32.983 15.316,32.983 16.933,31.767L26.099,24.917C27.183,24.1 28.066,22.333 28.066,20.983L28.066,7.483C28.083,5.6 26.649,3.533 24.899,2.867ZM19.799,12.2L12.633,19.367C12.383,19.617 12.066,19.733 11.749,19.733C11.433,19.733 11.116,19.617 10.866,19.367L8.199,16.667C7.716,16.183 7.716,15.383 8.199,14.9C8.683,14.417 9.483,14.417 9.966,14.9L11.766,16.7L18.049,10.417C18.533,9.933 19.333,9.933 19.816,10.417C20.299,10.9 20.299,11.717 19.799,12.2Z" fill="#FFFFFF"/>
</svg>
