<svg width="36" height="38" viewBox="0 0 36 38" fill="none" xmlns="http://www.w3.org/2000/svg" xmlns:xlink="http://www.w3.org/1999/xlink">
<path d="M25.333,0.485L9.333,0.485C3.81,0.485 -0.667,4.963 -0.667,10.485L-0.667,26.485C-0.667,32.008 3.81,36.485 9.333,36.485L25.333,36.485C30.856,36.485 35.333,32.008 35.333,26.485L35.333,10.485C35.333,4.963 30.856,0.485 25.333,0.485ZM31.833,26.485C31.822,30.071 28.918,32.974 25.333,32.985L9.333,32.985C5.748,32.974 2.844,30.071 2.833,26.485L2.833,10.485C2.844,6.9 5.748,3.996 9.333,3.985L25.333,3.985C28.918,3.996 31.822,6.9 31.833,10.485L31.833,26.485ZM26.833,10.985C27.938,10.985 28.833,10.09 28.833,8.985C28.833,7.881 27.938,6.985 26.833,6.985C25.728,6.985 24.833,7.881 24.833,8.985C24.833,10.09 25.728,10.985 26.833,10.985ZM17.333,9.485C12.362,9.485 8.333,13.515 8.333,18.485C8.333,23.456 12.362,27.485 17.333,27.485C22.304,27.485 26.333,23.456 26.333,18.485C26.338,16.097 25.392,13.804 23.703,12.116C22.014,10.427 19.722,9.48 17.333,9.485ZM11.833,18.485C11.833,21.523 14.295,23.985 17.333,23.985C20.371,23.985 22.833,21.523 22.833,18.485C22.833,15.448 20.371,12.985 17.333,12.985C14.295,12.985 11.833,15.448 11.833,18.485Z" clip-rule="evenodd" fill-rule="evenodd" fill="#FFFFFF"/>
</svg>
