<svg width="40" height="40" viewBox="0 0 40 40" fill="none" xmlns="http://www.w3.org/2000/svg" xmlns:xlink="http://www.w3.org/1999/xlink">
<path d="M35.45,15.3C34.967,14.533 34.45,13.817 33.917,13.15C33.3,12.367 32.133,12.3 31.433,13L26.433,18C26.8,19.1 26.867,20.367 26.533,21.683C25.95,24.033 24.05,25.933 21.7,26.517C20.383,26.85 19.117,26.783 18.017,26.417C18.017,26.417 15.633,28.8 13.917,30.517C13.083,31.35 13.35,32.817 14.467,33.25C16.25,33.933 18.1,34.283 20,34.283C22.967,34.283 25.85,33.417 28.483,31.8C31.167,30.133 33.583,27.683 35.533,24.567C37.117,22.05 37.034,17.817 35.45,15.3Z" fill="#FFFFFF"/>
<path d="M23.367,16.633L16.633,23.367C15.783,22.5 15.233,21.3 15.233,20C15.233,17.383 17.367,15.233 20,15.233C21.3,15.233 22.5,15.783 23.367,16.633Z" fill="#FFFFFF"/>
<path d="M30.416,9.583L24.766,15.233C23.55,14 21.866,13.267 20,13.267C16.266,13.267 13.266,16.283 13.266,20C13.266,21.867 14.016,23.55 15.233,24.767L9.6,30.417L9.583,30.417C7.733,28.917 6.033,27 4.583,24.733C2.916,22.117 2.916,17.867 4.583,15.25C6.516,12.217 8.883,9.833 11.516,8.2C14.15,6.6 17.033,5.717 20,5.717C23.716,5.717 27.316,7.083 30.416,9.583Z" fill="#FFFFFF"/>
<path d="M24.767,20C24.767,22.617 22.633,24.767 20,24.767C19.9,24.767 19.817,24.767 19.717,24.733L24.733,19.717C24.767,19.817 24.767,19.9 24.767,20Z" fill="#FFFFFF"/>
<path d="M36.283,3.717C35.783,3.217 34.967,3.217 34.467,3.717L3.717,34.483C3.217,34.983 3.217,35.8 3.717,36.3C3.967,36.533 4.283,36.667 4.617,36.667C4.95,36.667 5.267,36.533 5.517,36.283L36.283,5.517C36.8,5.017 36.8,4.217 36.283,3.717Z" fill="#FFFFFF"/>
</svg>
